<?xml version="1.0" encoding="iso-8859-1"?>
<!-- Generator: Adobe Illustrator 16.0.0, SVG Export Plug-In . SVG Version: 6.00 Build 0)  -->
<!DOCTYPE svg PUBLIC "-//W3C//DTD SVG 1.1//EN" "http://www.w3.org/Graphics/SVG/1.1/DTD/svg11.dtd">
<svg version="1.1" id="Capa_1" xmlns="http://www.w3.org/2000/svg" xmlns:xlink="http://www.w3.org/1999/xlink" x="0px" y="0px"
	 width="488.607px" height="488.607px" viewBox="0 0 488.607 488.607" style="enable-background:new 0 0 488.607 488.607;"
	 xml:space="preserve">
<g>
	<g id="Layer_2_13_">
		<path d="M376.422,335.585c-18.369-6.622-36.984-15.706-48.205-22.479c-2.361-1.502-5.156-2.383-8.162-2.383
			c-4.07,0-7.758,1.604-10.494,4.201c-0.012,0.006-0.025,0.012-0.039,0.018c-17.631,17.236-50.229,22.426-61.322,22.426
			c-0.947,0-2.882,0.014-3.896,0.021c-1.014-0.008-2.948-0.021-3.896-0.021c-11.095,0-43.691-5.189-61.323-22.426
			c-0.013-0.006-0.026-0.012-0.039-0.018c-2.735-2.599-6.423-4.201-10.493-4.201c-3.006,0-5.801,0.881-8.163,2.383
			c-11.22,6.773-29.835,15.857-48.205,22.479c-58.368,21.046-84.618,42.507-84.618,57.147c0,14.611,0,95.875,0,95.875h211.079h0.292
			h5.367h5.366h0.291h211.08c0,0,0-81.264,0-95.875C461.041,378.092,434.791,356.631,376.422,335.585z"/>
		<path d="M337.607,153.35c0,0,4.709-23.243,6.061-41.181c1.771-23.531,31.375-57.097,18.363-57.097
			c-22.904,0-43.926-6.602-62.947-14.607S263.479,0,245.338,0c-0.158,0-0.775,0-0.932,0c-18.141,0-34.724,32.459-53.747,40.465
			c-19.023,8.006-40.042,14.607-62.948,14.607c-13.011,0,16.592,33.565,18.364,57.097c1.351,17.938,6.06,41.181,6.06,41.181
			s-8.566,3.91-8.566,19.635c3.003,39.454,18.694,22.449,21.932,39.736c5.382,28.735,30.825,49.523,46.664,56.703
			c10.447,4.733,21.245,6.809,32.706,6.424c11.46,0.385,22.258-1.689,32.706-6.424c15.839-7.18,41.282-27.968,46.663-56.703
			c3.238-17.287,18.93-0.282,21.934-39.736C346.174,157.26,337.607,153.35,337.607,153.35z M267.672,65.61
			c0,10.877-14.981,22.262-22.8,22.262c-7.818,0-22.799-11.385-22.799-22.262c0-4.578,0-11.56,0-15.378
			c0-0.075,0.014-0.142,0.016-0.215c0-0.022-0.003-0.044-0.003-0.066c0-3.641,2.858-6.605,6.452-6.795
			c0.083-0.021,0.142-0.037,0.142-0.037h16.094h0.198l15.891,0.02c0.102-0.005,0.199-0.016,0.302-0.016
			c3.412,0,5.974,2.498,6.423,5.77c0.012,0.06,0.016,0.121,0.025,0.182c0.012,0.109,0.021,0.221,0.029,0.332
			c0.009,0.12,0.031,0.235,0.031,0.358C267.672,53.776,267.672,60.609,267.672,65.61z"/>
	</g>
</g>
<g>
</g>
<g>
</g>
<g>
</g>
<g>
</g>
<g>
</g>
<g>
</g>
<g>
</g>
<g>
</g>
<g>
</g>
<g>
</g>
<g>
</g>
<g>
</g>
<g>
</g>
<g>
</g>
<g>
</g>
</svg>
